<svg width="256" height="256" viewBox="0 0 256 256" fill="none" xmlns="http://www.w3.org/2000/svg">
  <rect width="256" height="256" rx="56" fill="#FF385C"/>
  <path d="M128 56C113 56 101 66 94 79L62 140C57 149 56 159 60 168C65 179 76 186 88 186C100 186 111 179 116 168L128 146L140 168C145 179 156 186 168 186C180 186 191 179 196 168C200 159 199 149 194 140L162 79C155 66 143 56 128 56ZM106 116C111 105 117 94 123 84C125 81 127 80 128 80C129 80 131 81 133 84C139 94 145 105 150 116L165 146C167 149 167 152 166 154C165 157 162 160 158 160C154 160 151 158 149 154L136 131C134 127 131 124 128 124C125 124 122 127 120 131L107 154C105 158 102 160 98 160C94 160 91 157 90 154C89 152 89 149 91 146L106 116Z" fill="white"/>
</svg>
